<svg width="64" height="64" viewBox="0 0 64 64" fill="none" xmlns="http://www.w3.org/2000/svg">
<g clip-path="url(#clip0)">
<path d="M63 32C63 33.5913 62.3679 35.1174 61.2426 36.2426C60.1174 37.3679 58.5913 38 57 38H46L45.9 38.21L42.46 36.54L38 34.36V33.68C38.5878 33.4013 39.1528 33.0769 39.69 32.71C40.1399 32.4176 40.5708 32.097 40.98 31.75C42.7907 30.2053 44.1806 28.2271 45.02 26H57C58.5913 26 60.1174 26.6321 61.2426 27.7574C62.3679 28.8826 63 30.4087 63 32Z" fill="#8D6E63"/>
<path d="M57 33.79H38V34.36L42.46 36.54L45.9 38.21L46 38H57C57.9694 38.0021 58.9248 37.7688 59.7841 37.3199C60.6433 36.8711 61.3807 36.2203 61.9328 35.4235C62.4848 34.6267 62.8351 33.7077 62.9534 32.7455C63.0717 31.7833 62.9546 30.8068 62.612 29.9C62.183 31.042 61.416 32.0262 60.4133 32.7212C59.4107 33.4162 58.22 33.789 57 33.79V33.79Z" fill="#765531"/>
<path d="M54.92 42.6C55.6362 42.94 56.2779 43.4185 56.8081 44.008C57.3383 44.5974 57.7464 45.2861 58.0088 46.0342C58.2712 46.7823 58.3828 47.575 58.3371 48.3665C58.2913 49.158 58.0892 49.9326 57.7423 50.6454C57.3954 51.3583 56.9107 51.9954 56.3162 52.5199C55.7216 53.0443 55.0291 53.4458 54.2784 53.701C53.5278 53.9562 52.7341 54.0601 51.9431 54.0067C51.1521 53.9533 50.3795 53.7437 49.67 53.39H49.66C48.2292 52.6925 47.134 51.4551 46.6155 49.9502C46.0969 48.4452 46.1975 46.7958 46.895 45.365C47.5925 43.9342 48.8299 42.839 50.3349 42.3205C51.8398 41.8019 53.4892 41.9025 54.92 42.6Z" fill="#FFDAAA"/>
<path d="M46 20.79C45.9961 22.5721 45.6639 24.3383 45.02 26C44.1806 28.2271 42.7907 30.2053 40.98 31.75C40.0748 32.5201 39.073 33.1689 38 33.68C37.5432 33.8984 37.0721 34.0855 36.59 34.24C36.5848 34.2457 36.5777 34.2493 36.57 34.25C35.2217 34.7184 33.8072 34.9683 32.38 34.99C32.0903 35.0117 31.7992 35.0083 31.51 34.98C29.6008 34.9079 27.7262 34.4487 26 33.63C22.7603 32.0885 20.2416 29.3548 18.97 26C16.91 20.64 18.58 14.84 22.05 10.2C22.2699 12.5812 22.9312 14.9008 24 17.04C26.66 16.36 29.47 13.84 30.99 9.89C32.033 7.05013 32.3794 4.00146 32 1C32 1 46 9.8 46 20.79Z" fill="#F29C40"/>
<path d="M45.9 38.21L54.92 42.6C53.4892 41.9025 51.8398 41.8019 50.3349 42.3205C48.8299 42.839 47.5925 43.9342 46.895 45.365C46.1975 46.7958 46.0969 48.4452 46.6155 49.9501C47.134 51.4551 48.2292 52.6925 49.66 53.39L38 47.71V34.36L42.46 36.54L45.9 38.21Z" fill="#8D6E63"/>
<path d="M46.329 47.407L38 43.35V47.71L49.66 53.39C48.5617 52.8504 47.6543 51.9885 47.0591 50.9193C46.4638 49.8502 46.2091 48.6248 46.329 47.407V47.407Z" fill="#765531"/>
<path d="M38 33.68V57C38 55.4087 37.3679 53.8826 36.2426 52.7574C35.1174 51.6321 33.5913 51 32 51C30.4087 51 28.8826 51.6321 27.7574 52.7574C26.6321 53.8826 26 55.4087 26 57V33.63C27.7262 34.4487 29.6008 34.9079 31.51 34.98C31.6728 34.9966 31.8364 35.0033 32 35C32.13 35 32.25 35 32.38 34.99C34.325 34.9568 36.2408 34.5102 38 33.68V33.68Z" fill="#8D6E63"/>
<path d="M32 35C31.8364 35.0033 31.6728 34.9966 31.51 34.98C30.6021 34.9444 29.6999 34.8205 28.816 34.61C28.681 34.578 28.549 34.539 28.416 34.503C28.134 34.428 27.855 34.346 27.579 34.253C27.445 34.209 27.31 34.165 27.179 34.116C26.779 33.97 26.387 33.816 26.002 33.63V57C26.015 55.7739 26.3982 54.5802 27.1012 53.5756C27.8043 52.571 28.7945 51.8022 29.942 51.37V37H32V35Z" fill="#E32522"/>
<path d="M34 34.858V51.35C35.1687 51.7632 36.1807 52.5282 36.897 53.5399C37.6133 54.5517 37.9986 55.7604 38 57V33.68C36.734 34.273 35.3853 34.6702 34 34.858Z" fill="#765531"/>
<path d="M36.3 24.06C38.01 26.42 38.69 29.46 37.1 32.1C36.6073 32.929 35.92 33.6254 35.0975 34.129C34.2751 34.6325 33.3424 34.9281 32.38 34.99C32.0902 35.0117 31.7992 35.0083 31.51 34.98C30.2874 34.8755 29.1306 34.3813 28.21 33.57C27.5345 32.9579 26.995 32.2108 26.6263 31.3771C26.2577 30.5434 26.0682 29.6416 26.07 28.73C26.07 23.88 32.05 20 32.05 20C31 23 33 27 35 27C35.8037 26.2295 36.2709 25.173 36.3 24.06Z" fill="#FF5A3D"/>
<path d="M36.3 24.06C36.2709 25.173 35.8037 26.2295 35 27C34.956 27 34.912 26.988 34.868 26.984C35.0722 28.4116 34.7761 29.8659 34.03 31.1C33.5373 31.929 32.85 32.6254 32.0276 33.129C31.2051 33.6325 30.2724 33.9281 29.31 33.99C29.129 34.003 28.948 33.99 28.767 33.984C29.5794 34.549 30.5246 34.8936 31.51 34.984C31.7992 35.0123 32.0903 35.0157 32.38 34.994C33.3427 34.9316 34.2757 34.6355 35.0982 34.1312C35.9207 33.6269 36.6078 32.9297 37.1 32.1C38.69 29.46 38.01 26.42 36.3 24.06Z" fill="#E32522"/>
<path d="M32 63C35.3137 63 38 60.3137 38 57C38 53.6863 35.3137 51 32 51C28.6863 51 26 53.6863 26 57C26 60.3137 28.6863 63 32 63Z" fill="#FFDAAA"/>
<path d="M32 60C30.6714 59.9979 29.3812 59.5549 28.3315 58.7405C27.2818 57.9261 26.5321 56.7864 26.2 55.5C25.9667 56.3877 25.9402 57.3172 26.1226 58.2167C26.3049 59.1163 26.6912 59.9621 27.2517 60.6889C27.8122 61.4158 28.5321 62.0043 29.3558 62.4093C30.1795 62.8143 31.0851 63.0249 32.003 63.0249C32.9209 63.0249 33.8265 62.8143 34.6502 62.4093C35.4739 62.0043 36.1937 61.4158 36.7543 60.6889C37.3148 59.9621 37.7011 59.1163 37.8834 58.2167C38.0658 57.3172 38.0393 56.3877 37.806 55.5C37.4736 56.7874 36.723 57.9278 35.6721 58.7424C34.6212 59.5569 33.3296 59.9992 32 60V60Z" fill="#C29588"/>
<path d="M26 34.36V47.71L14.34 53.39C15.5148 52.8176 16.4696 51.876 17.0584 50.7093C17.6472 49.5426 17.8374 48.2151 17.6 46.93C17.5143 46.3874 17.3457 45.8613 17.1 45.37C16.4037 43.9392 15.1677 42.8436 13.6636 42.3241C12.1596 41.8046 10.5108 41.9039 9.07999 42.6L18.1 38.21L21.54 36.54L26 34.36Z" fill="#8D6E63"/>
<path d="M21.54 36.54L18.1 38.21L9.07999 42.6C9.90639 42.1976 10.8144 41.991 11.7336 41.9964C12.6528 42.0018 13.5583 42.2189 14.38 42.631L18.1 40.82L21.54 39.15L26 36.97V34.36L21.54 36.54ZM42.46 36.54L45.9 38.21L54.92 42.6C54.0936 42.1976 53.1855 41.991 52.2664 41.9964C51.3472 42.0018 50.4416 42.2189 49.62 42.631L45.9 40.82L42.46 39.15L38 36.97V34.36L42.46 36.54Z" fill="#E32522"/>
<path d="M26 33.63V34.36L21.54 36.54L18.1 38.21L18 38H7C5.4087 38 3.88258 37.3679 2.75736 36.2426C1.63214 35.1174 1 33.5913 1 32C1 30.4087 1.63214 28.8826 2.75736 27.7574C3.88258 26.6321 5.4087 26 7 26H18.97C20.2416 29.3548 22.7603 32.0885 26 33.63V33.63Z" fill="#8D6E63"/>
<path d="M17.1 45.37C17.7949 46.7999 17.8946 48.447 17.3772 49.9503C16.8599 51.4536 15.7677 52.6905 14.34 53.39H14.33C13.2629 53.9093 12.0658 54.1004 10.8901 53.9393C9.71437 53.7782 8.61282 53.2721 7.72475 52.4849C6.83669 51.6978 6.20199 50.6649 5.90092 49.5171C5.59985 48.3692 5.64594 47.1578 6.03336 46.0361C6.42078 44.9144 7.13212 43.9328 8.07743 43.2154C9.02275 42.498 10.1596 42.077 11.3441 42.0057C12.5287 41.9344 13.7078 42.216 14.7323 42.8148C15.7569 43.4137 16.5808 44.3029 17.1 45.37V45.37Z" fill="#FFDAAA"/>
<path d="M17.1 45.37C16.4232 43.9773 15.2322 42.9018 13.778 42.37C14.0165 42.6821 14.2235 43.0171 14.396 43.37C15.0912 44.7999 15.191 46.4471 14.6736 47.9505C14.1563 49.4538 13.0639 50.6907 11.636 51.39H11.626C10.8989 51.7443 10.1074 51.9474 9.29958 51.9869C8.49171 52.0264 7.68422 51.9016 6.92599 51.62C7.76487 52.7259 8.96127 53.5068 10.3113 53.8296C11.6614 54.1523 13.0816 53.997 14.33 53.39H14.34C15.7677 52.6905 16.8599 51.4536 17.3772 49.9503C17.8946 48.447 17.7949 46.7999 17.1 45.37ZM46.9 45.37C47.5768 43.9773 48.7678 42.9018 50.222 42.37C49.9835 42.6821 49.7764 43.0171 49.604 43.37C48.9088 44.7999 48.809 46.4471 49.3264 47.9505C49.8437 49.4538 50.9361 50.6907 52.364 51.39H52.374C53.1011 51.7443 53.8925 51.9474 54.7004 51.9869C55.5083 52.0264 56.3158 51.9016 57.074 51.62C56.2351 52.7259 55.0387 53.5068 53.6886 53.8296C52.3386 54.1523 50.9184 53.997 49.67 53.39H49.66C48.2323 52.6905 47.1401 51.4536 46.6227 49.9503C46.1054 48.447 46.2051 46.7999 46.9 45.37V45.37Z" fill="#C29588"/>
<path d="M26 42.95V47.71L14.34 53.39C15.5148 52.8176 16.4696 51.8759 17.0584 50.7093C17.6472 49.5426 17.8374 48.2151 17.6 46.93L26 42.95Z" fill="#765531"/>
<path d="M46 20.79C45.9961 22.5721 45.6639 24.3383 45.02 26C44.1806 28.2271 42.7907 30.2053 40.98 31.75C40.0748 32.5201 39.073 33.1689 38 33.68C37.5432 33.8984 37.0721 34.0855 36.59 34.24C44.03 28.91 43.27 16.12 30.99 9.89C32.033 7.05013 32.3793 4.00146 32 1C32 1 46 9.8 46 20.79Z" fill="#E87D2C"/>
<path d="M48.68 26C47.8238 27.7533 46.5614 29.2769 44.9978 30.4439C43.4341 31.611 41.6144 32.3879 39.69 32.71C40.1399 32.4176 40.5708 32.097 40.98 31.75C42.7907 30.2053 44.1806 28.2271 45.02 26H48.68Z" fill="#E87D2C"/>
<path d="M7 33.79H26V34.36L21.54 36.54L18.1 38.21L18 38H7C6.0306 38.0021 5.07519 37.7688 4.21594 37.3199C3.35669 36.8711 2.61932 36.2203 2.06724 35.4235C1.51516 34.6267 1.1649 33.7077 1.04658 32.7455C0.92826 31.7833 1.04543 30.8068 1.388 29.9C1.81702 31.042 2.584 32.0262 3.58666 32.7212C4.58932 33.4162 5.78002 33.789 7 33.79V33.79Z" fill="#765531"/>
<path d="M15.32 26C16.1762 27.7533 17.4386 29.2769 19.0022 30.4439C20.5659 31.611 22.3856 32.3879 24.31 32.71C23.8601 32.4176 23.4292 32.097 23.02 31.75C21.2093 30.2053 19.8194 28.2271 18.98 26H15.32Z" fill="#E87D2C"/>
<path d="M33 57C33 57.2652 33.1054 57.5196 33.2929 57.7071C33.4804 57.8946 33.7348 58 34 58C34.2652 58 34.5196 57.8946 34.7071 57.7071C34.8946 57.5196 35 57.2652 35 57C35 56.2044 34.6839 55.4413 34.1213 54.8787C33.5587 54.3161 32.7956 54 32 54C31.7348 54 31.4804 54.1054 31.2929 54.2929C31.1054 54.4804 31 54.7348 31 55C31 55.2652 31.1054 55.5196 31.2929 55.7071C31.4804 55.8946 31.7348 56 32 56C32.2652 56 32.5196 56.1054 32.7071 56.2929C32.8946 56.4804 33 56.7348 33 57ZM34 38C33.7348 38 33.4804 38.1054 33.2929 38.2929C33.1054 38.4804 33 38.7348 33 39V46C33 46.2652 33.1054 46.5196 33.2929 46.7071C33.4804 46.8946 33.7348 47 34 47C34.2652 47 34.5196 46.8946 34.7071 46.7071C34.8946 46.5196 35 46.2652 35 46V39C35 38.7348 34.8946 38.4804 34.7071 38.2929C34.5196 38.1054 34.2652 38 34 38Z" fill="black"/>
<path d="M10.074 52.725C9.45247 52.5127 8.87927 52.1791 8.38764 51.7436C7.89601 51.3081 7.49572 50.7794 7.21 50.188C6.64249 48.9933 6.566 47.6238 6.99696 46.3734C7.42791 45.1229 8.33195 44.0913 9.515 43.5C10.1056 43.2126 10.747 43.0443 11.4027 43.0048C12.0583 42.9654 12.7153 43.0555 13.3361 43.27C13.9569 43.4845 14.5293 43.8192 15.0207 44.2551C15.5121 44.6909 15.9129 45.2193 16.2 45.81C16.6073 46.6997 16.7474 47.6886 16.6032 48.6564C16.4591 49.6242 16.0369 50.5293 15.3881 51.2617C14.7392 51.9942 13.8916 52.5224 12.9482 52.7821C12.0048 53.0419 11.0063 53.022 10.074 52.725V52.725ZM18.293 50.352C18.302 50.328 18.313 50.306 18.321 50.282C18.6239 49.4137 18.7515 48.4938 18.6964 47.5758C18.6413 46.6578 18.4046 45.7599 18 44.934C17.8512 44.6339 17.6811 44.3448 17.491 44.069L22.216 41.769C22.4547 41.653 22.6375 41.4469 22.7243 41.196C22.811 40.9452 22.7945 40.6702 22.6785 40.4315C22.5625 40.1928 22.3564 40.01 22.1055 39.9232C21.8547 39.8365 21.5797 39.853 21.341 39.969L16.075 42.534C15.4505 42.0332 14.745 41.643 13.989 41.38C13.964 41.372 13.939 41.367 13.914 41.358L25 35.959V47.085L18.293 50.352ZM38 42C37.7348 42 37.4804 42.1054 37.2929 42.2929C37.1054 42.4804 37 42.7348 37 43V52.111C36.2364 51.3157 35.2925 50.716 34.2481 50.3625C33.2038 50.009 32.0897 49.9121 31 50.08V45C31 44.7348 30.8946 44.4804 30.7071 44.2929C30.5196 44.1054 30.2652 44 30 44C29.7348 44 29.4804 44.1054 29.2929 44.2929C29.1054 44.4804 29 44.7348 29 45V50.685C28.2547 51.039 27.5776 51.5218 27 52.111V35.111C27.8864 35.4317 28.8006 35.6694 29.731 35.821C32.172 36.2002 34.6688 35.971 37 35.154V39C37 39.2652 37.1054 39.5196 37.2929 39.7071C37.4804 39.8946 37.7348 40 38 40C38.2652 40 38.5196 39.8946 38.7071 39.7071C38.8946 39.5196 39 39.2652 39 39V35.959L50.088 41.359C50.063 41.368 50.038 41.373 50.013 41.381C49.257 41.644 48.5515 42.0342 47.927 42.535L42.661 39.97C42.4223 39.854 42.1473 39.8375 41.8965 39.9242C41.6456 40.011 41.4395 40.1938 41.3235 40.4325C41.2075 40.6712 41.191 40.9462 41.2777 41.197C41.3645 41.4479 41.5473 41.654 41.786 41.77L46.511 44.07C45.8916 44.9664 45.4934 45.9967 45.3487 47.0766C45.2041 48.1565 45.3173 49.2553 45.679 50.283C45.687 50.307 45.698 50.329 45.707 50.353L39 47.085V43C39 42.7348 38.8946 42.4804 38.7071 42.2929C38.5196 42.1054 38.2652 42 38 42ZM57.021 46.368C57.3971 47.4618 57.3823 48.6523 56.9792 49.7364C56.576 50.8206 55.8094 51.7315 54.81 52.3138C53.8106 52.8962 52.6402 53.114 51.4982 52.9302C50.3562 52.7464 49.3132 52.1724 48.547 51.3058C47.7808 50.4393 47.3387 49.3339 47.2961 48.178C47.2535 47.0221 47.6129 45.8871 48.3132 44.9665C49.0136 44.0459 50.0114 43.3966 51.1368 43.1292C52.2621 42.8618 53.4454 42.9928 54.485 43.5C55.0765 43.7864 55.6052 44.1874 56.0405 44.6797C56.4759 45.1721 56.8091 45.7459 57.021 46.368V46.368ZM39.53 33.99C40.2709 33.5575 40.9735 33.0623 41.63 32.51C43.3134 31.0559 44.6642 29.2567 45.5907 27.2345C46.5173 25.2123 46.9979 23.0144 47 20.79C46.955 18.1338 46.2725 15.5274 45.01 13.19C44.888 12.954 44.6772 12.776 44.4241 12.6954C44.1709 12.6148 43.896 12.638 43.66 12.76C43.424 12.882 43.246 13.0928 43.1654 13.3459C43.0848 13.5991 43.108 13.874 43.23 14.11C44.3501 16.1613 44.9574 18.4532 45 20.79C45.0005 22.7259 44.5836 24.6392 43.7777 26.3995C42.9718 28.1597 41.7959 29.7254 40.33 30.99C39.6087 31.5959 38.8241 32.1222 37.99 32.56C39.59 29.84 39.27 26.45 37.11 23.47C36.9864 23.2993 36.812 23.1719 36.6117 23.1062C36.4115 23.0405 36.1955 23.0398 35.9948 23.1041C35.7941 23.1684 35.6188 23.2945 35.494 23.4644C35.3693 23.6343 35.3013 23.8392 35.3 24.05C35.2815 24.721 35.0504 25.3688 34.64 25.9C34.2962 25.6895 34.0026 25.4062 33.78 25.07C33.3061 24.3875 32.9894 23.6083 32.8528 22.7887C32.7162 21.9691 32.7631 21.1293 32.99 20.33C33.0612 20.1337 33.0689 19.92 33.0118 19.7192C32.9547 19.5183 32.8359 19.3406 32.6721 19.2111C32.5083 19.0816 32.3079 19.007 32.0993 18.9978C31.8907 18.9886 31.6845 19.0454 31.51 19.16C29.7483 20.349 28.2027 21.8303 26.94 23.54C26.8125 23.7553 26.7703 24.0106 26.8218 24.2554C26.8733 24.5003 27.0148 24.717 27.2182 24.8626C27.4217 25.0083 27.6723 25.0724 27.9208 25.0423C28.1692 25.0122 28.3973 24.8901 28.56 24.7C29.2145 23.8189 29.9548 23.0049 30.77 22.27C30.8681 23.6896 31.3446 25.0569 32.15 26.23C32.75 27.08 34.6 28.82 35.71 27.71C36.0389 27.3846 36.3246 27.0183 36.56 26.62C36.8933 27.4153 37.0378 28.277 36.9823 29.1376C36.9268 29.9981 36.6727 30.8341 36.24 31.58C35.7644 32.3632 35.0832 33.0011 34.2704 33.4242C33.4576 33.8474 32.5444 34.0396 31.63 33.98C30.6094 33.8994 29.6417 33.4927 28.87 32.82C28.2998 32.3027 27.8449 31.6712 27.5348 30.9665C27.2247 30.2619 27.0663 29.4999 27.07 28.73C27.0681 28.4754 27.0882 28.2211 27.13 27.97C27.151 27.84 27.1462 27.7071 27.1159 27.579C27.0855 27.4508 27.0302 27.3299 26.9532 27.2231C26.8761 27.1163 26.7787 27.0257 26.6667 26.9566C26.5546 26.8874 26.43 26.841 26.3 26.82C26.17 26.799 26.0371 26.8038 25.909 26.8341C25.7808 26.8645 25.6599 26.9198 25.5531 26.9968C25.3374 27.1525 25.1924 27.3874 25.15 27.65C25.0963 28.0075 25.0695 28.3685 25.07 28.73C25.0755 30.0802 25.4377 31.4049 26.12 32.57C24.0313 31.5082 22.2716 29.8971 21.03 27.91C20.5907 27.1997 20.219 26.4498 19.92 25.67C19.91 25.63 19.9 25.6 19.89 25.57C18.44 21.66 18.98 17.17 21.45 12.91C21.8476 14.4841 22.4003 16.015 23.1 17.48C23.2042 17.6847 23.3744 17.8484 23.583 17.9446C23.7917 18.0407 24.0266 18.0638 24.25 18.01C28.93 16.81 33.26 10.99 33.13 3C36.1769 5.22671 38.8937 7.87288 41.2 10.86C41.2788 10.9651 41.3775 11.0536 41.4905 11.1205C41.6035 11.1874 41.7286 11.2314 41.8586 11.2499C41.9886 11.2685 42.121 11.2613 42.2482 11.2287C42.3754 11.1961 42.4949 11.1388 42.6 11.06C42.7051 10.9812 42.7936 10.8825 42.8605 10.7695C42.9274 10.6565 42.9714 10.5314 42.9899 10.4014C43.0085 10.2714 43.0013 10.139 42.9687 10.0118C42.9361 9.8846 42.8788 9.76505 42.8 9.66C39.9254 5.94457 36.4551 2.73106 32.53 0.149997C32.3706 0.0518866 32.1872 -6.10352e-05 32 -6.10352e-05C31.8128 -6.10352e-05 31.6294 0.0518866 31.47 0.149997C31.3095 0.249224 31.1809 0.39242 31.0993 0.562585C31.0178 0.732751 30.9868 0.922739 31.01 1.11C31.91 9.28 27.98 14.39 24.54 15.81C23.73 14.0306 23.2262 12.1272 23.05 10.18C23.0459 9.97181 22.9769 9.7701 22.8526 9.60301C22.7284 9.43593 22.5551 9.31179 22.3569 9.24793C22.1587 9.18407 21.9455 9.18367 21.7471 9.24678C21.5487 9.30989 21.3749 9.43338 21.25 9.6C17.52 14.6 16.28 20.1 17.61 25H7C5.14348 25 3.36301 25.7375 2.05025 27.0502C0.737498 28.363 0 30.1435 0 32C0 33.8565 0.737498 35.637 2.05025 36.9497C3.36301 38.2625 5.14348 39 7 39H12C12.2652 39 12.5196 38.8946 12.7071 38.7071C12.8946 38.5196 13 38.2652 13 38C13 37.7348 12.8946 37.4804 12.7071 37.2929C12.5196 37.1054 12.2652 37 12 37H7C5.67392 37 4.40215 36.4732 3.46447 35.5355C2.52678 34.5978 2 33.3261 2 32C2 30.6739 2.52678 29.4021 3.46447 28.4645C4.40215 27.5268 5.67392 27 7 27H18.3C18.5975 27.6796 18.9417 28.3379 19.33 28.97C20.6279 31.0346 22.4137 32.7482 24.53 33.96C24.53 33.96 8.64 41.7 8.63 41.71C7.38572 42.317 6.34936 43.2793 5.65197 44.4752C4.95459 45.6712 4.62749 47.0471 4.71205 48.4289C4.79661 49.8108 5.28902 51.1365 6.12703 52.2385C6.96503 53.3405 8.11099 54.1693 9.42 54.62C10.1579 54.8691 10.9312 54.9974 11.71 55C12.7737 54.9971 13.8231 54.7544 14.78 54.29L25 49.31V57C24.9953 58.0463 25.2314 59.0796 25.69 60.02C25.8067 60.2587 26.0134 60.4413 26.2647 60.5275C26.516 60.6138 26.7913 60.5967 27.03 60.48C27.2687 60.3633 27.4513 60.1566 27.5375 59.9053C27.6238 59.654 27.6067 59.3787 27.49 59.14C27.1613 58.4749 26.9934 57.7419 27 57C27 56.0111 27.2932 55.0444 27.8427 54.2221C28.3921 53.3999 29.173 52.759 30.0866 52.3806C31.0002 52.0022 32.0055 51.9031 32.9755 52.0961C33.9454 52.289 34.8363 52.7652 35.5355 53.4645C36.2348 54.1637 36.711 55.0546 36.9039 56.0245C37.0969 56.9944 36.9978 57.9998 36.6194 58.9134C36.241 59.827 35.6001 60.6079 34.7779 61.1573C33.9556 61.7068 32.9889 62 32 62C31.2583 62.0055 30.5255 61.8377 29.86 61.51C29.7418 61.4522 29.6134 61.4183 29.4821 61.4101C29.3508 61.402 29.2192 61.4198 29.0947 61.4625C28.9703 61.5052 28.8555 61.572 28.7569 61.6591C28.6583 61.7462 28.5778 61.8518 28.52 61.97C28.4622 62.0882 28.4283 62.2166 28.4201 62.3479C28.412 62.4792 28.4298 62.6108 28.4725 62.7353C28.5152 62.8597 28.582 62.9745 28.6691 63.0731C28.7562 63.1717 28.8618 63.2522 28.98 63.31C29.9204 63.7686 30.9537 64.0047 32 64C33.8559 63.9979 35.6351 63.2597 36.9474 61.9474C38.2597 60.6351 38.9979 58.8559 39 57V49.31C39 49.31 49.22 54.29 49.23 54.29C50.9118 55.0553 52.8169 55.1728 54.58 54.62C56.313 53.9849 57.7323 52.7028 58.5397 51.0432C59.3472 49.3835 59.4799 47.4755 58.91 45.72C58.6133 44.8486 58.1468 44.0446 57.5374 43.3546C56.9281 42.6646 56.188 42.1022 55.36 41.7L49.81 39H57C58.8565 39 60.637 38.2625 61.9497 36.9497C63.2625 35.637 64 33.8565 64 32C64 30.1435 63.2625 28.363 61.9497 27.0502C60.637 25.7375 58.8565 25 57 25H53C52.7348 25 52.4804 25.1054 52.2929 25.2929C52.1054 25.4804 52 25.7348 52 26C52 26.2652 52.1054 26.5196 52.2929 26.7071C52.4804 26.8946 52.7348 27 53 27H57C58.3261 27 59.5979 27.5268 60.5355 28.4645C61.4732 29.4021 62 30.6739 62 32C62 33.3261 61.4732 34.5978 60.5355 35.5355C59.5979 36.4732 58.3261 37 57 37H45.71L39.53 33.99Z" fill="black"/>
<path d="M10.392 45.3C10.0377 45.4725 9.72085 45.7132 9.45958 46.0082C9.19831 46.3033 8.99773 46.6469 8.8693 47.0195C8.74087 47.392 8.6871 47.7863 8.71107 48.1796C8.73504 48.573 8.83628 48.9578 9.009 49.312C9.06652 49.4302 9.14675 49.5359 9.24512 49.6231C9.34349 49.7103 9.45807 49.7772 9.58232 49.8201C9.70656 49.863 9.83804 49.881 9.96924 49.8731C10.1004 49.8652 10.2288 49.8315 10.347 49.774C10.4652 49.7165 10.5709 49.6362 10.6581 49.5379C10.7453 49.4395 10.8122 49.3249 10.8551 49.2007C10.898 49.0764 10.916 48.945 10.9081 48.8138C10.9002 48.6826 10.8665 48.5542 10.809 48.436C10.6928 48.1977 10.6759 47.923 10.7622 47.6723C10.8484 47.4215 11.0307 47.2153 11.269 47.099C11.5076 46.9827 11.6902 46.7764 11.7766 46.5255C11.8631 46.2746 11.8463 45.9996 11.73 45.761C11.6137 45.5224 11.4074 45.3398 11.1565 45.2534C10.9056 45.1669 10.6306 45.1837 10.392 45.3V45.3ZM53.608 45.3C53.3693 45.184 53.0943 45.1675 52.8435 45.2542C52.5926 45.341 52.3865 45.5238 52.2705 45.7625C52.1545 46.0012 52.138 46.2762 52.2247 46.527C52.3115 46.7779 52.4943 46.984 52.733 47.1C52.9712 47.2162 53.1535 47.4221 53.2399 47.6726C53.3264 47.9231 53.3099 48.1977 53.194 48.436C53.1364 48.5542 53.1027 48.6826 53.0947 48.8138C53.0867 48.945 53.1047 49.0765 53.1475 49.2008C53.1904 49.3251 53.2573 49.4398 53.3445 49.5382C53.4316 49.6366 53.5373 49.7169 53.6555 49.7745C53.7737 49.8321 53.9021 49.8658 54.0333 49.8738C54.1645 49.8818 54.296 49.8638 54.4203 49.821C54.5446 49.7781 54.6593 49.7112 54.7577 49.624C54.8561 49.5369 54.9364 49.4312 54.994 49.313C55.1668 48.9585 55.268 48.5735 55.2918 48.1799C55.3157 47.7863 55.2617 47.3919 55.1329 47.0192C55.0042 46.6465 54.8033 46.3028 54.5416 46.0078C54.2799 45.7128 53.9627 45.4723 53.608 45.3V45.3ZM14 30C14 29.7348 13.8946 29.4804 13.7071 29.2929C13.5196 29.1054 13.2652 29 13 29H6C5.73478 29 5.48043 29.1054 5.29289 29.2929C5.10536 29.4804 5 29.7348 5 30C5 30.2652 5.10536 30.5196 5.29289 30.7071C5.48043 30.8946 5.73478 31 6 31H13C13.2652 31 13.5196 30.8946 13.7071 30.7071C13.8946 30.5196 14 30.2652 14 30ZM12 35H17C17.2652 35 17.5196 34.8946 17.7071 34.7071C17.8946 34.5196 18 34.2652 18 34C18 33.7348 17.8946 33.4804 17.7071 33.2929C17.5196 33.1054 17.2652 33 17 33H12C11.7348 33 11.4804 33.1054 11.2929 33.2929C11.1054 33.4804 11 33.7348 11 34C11 34.2652 11.1054 34.5196 11.2929 34.7071C11.4804 34.8946 11.7348 35 12 35V35ZM51 31H58C58.2652 31 58.5196 30.8946 58.7071 30.7071C58.8946 30.5196 59 30.2652 59 30C59 29.7348 58.8946 29.4804 58.7071 29.2929C58.5196 29.1054 58.2652 29 58 29H51C50.7348 29 50.4804 29.1054 50.2929 29.2929C50.1054 29.4804 50 29.7348 50 30C50 30.2652 50.1054 30.5196 50.2929 30.7071C50.4804 30.8946 50.7348 31 51 31ZM47 33C46.7348 33 46.4804 33.1054 46.2929 33.2929C46.1054 33.4804 46 33.7348 46 34C46 34.2652 46.1054 34.5196 46.2929 34.7071C46.4804 34.8946 46.7348 35 47 35H52C52.2652 35 52.5196 34.8946 52.7071 34.7071C52.8946 34.5196 53 34.2652 53 34C53 33.7348 52.8946 33.4804 52.7071 33.2929C52.5196 33.1054 52.2652 33 52 33H47Z" fill="black"/>
<path d="M49 27C49.5523 27 50 26.5523 50 26C50 25.4477 49.5523 25 49 25C48.4477 25 48 25.4477 48 26C48 26.5523 48.4477 27 49 27Z" fill="black"/>
</g>
<defs>
<clipPath id="clip0">
<rect width="64" height="64" fill="white"/>
</clipPath>
</defs>
</svg>
